<?xml version="1.0" standalone="no"?>
<!DOCTYPE svg PUBLIC "-//W3C//DTD SVG 20010904//EN"
 "http://www.w3.org/TR/2001/REC-SVG-20010904/DTD/svg10.dtd">
<svg version="1.0" xmlns="http://www.w3.org/2000/svg"
 width="293.000000pt" height="293.000000pt" viewBox="0 0 293.000000 293.000000"
 preserveAspectRatio="xMidYMid meet">
<metadata>
Created by potrace 1.14, written by Peter Selinger 2001-2017
</metadata>
<g transform="translate(0.000000,293.000000) scale(0.100000,-0.100000)"
fill="#000000" stroke="none">
<path d="M1420 2232 c-19 -2 -42 -10 -50 -17 -8 -7 -27 -16 -42 -20 -15 -4
-30 -14 -33 -23 -3 -10 -33 -28 -67 -41 -128 -49 -247 -149 -298 -251 -35 -70
-63 -178 -55 -217 3 -16 8 -46 11 -68 4 -22 12 -55 20 -74 8 -18 14 -35 14
-37 0 -10 -61 -42 -90 -48 -30 -5 -36 -3 -37 11 -3 34 -135 578 -148 610 -12
28 -17 32 -37 24 -35 -13 -33 -53 12 -226 11 -44 23 -91 26 -105 2 -14 18 -77
34 -140 16 -63 31 -128 34 -145 3 -16 13 -55 21 -84 8 -30 11 -60 6 -65 -13
-19 -53 -119 -66 -167 -11 -39 -10 -52 2 -77 14 -28 49 -52 77 -52 14 0 26
-30 26 -66 0 -12 9 -31 20 -44 11 -13 20 -29 20 -37 0 -8 11 -33 23 -56 34
-60 41 -93 21 -101 -12 -5 -13 -10 -5 -19 8 -10 25 -12 63 -6 29 4 199 8 378
9 518 4 834 8 845 9 6 1 0 6 -11 11 -21 8 -21 10 -7 55 14 42 38 57 38 24 0
-16 62 -26 75 -12 5 4 11 26 14 48 4 22 9 54 12 70 10 57 11 86 3 90 -4 3 -7
23 -6 45 1 33 6 41 30 51 57 24 65 58 36 168 -11 44 -19 56 -45 69 -17 8 -44
35 -60 59 -32 50 -76 87 -115 97 l-26 6 19 67 c19 69 20 193 2 253 -13 42 -71
133 -116 181 -81 87 -218 164 -301 171 -16 1 -33 10 -38 19 -5 10 -26 23 -46
30 -21 6 -43 16 -50 21 -10 8 -42 8 -133 0z"/>
</g>
</svg>
